<?xml version="1.0" encoding="UTF-8"?>
<svg width="228px" height="51px" viewBox="0 0 228 51" version="1.1" xmlns="http://www.w3.org/2000/svg" xmlns:xlink="http://www.w3.org/1999/xlink">
    <title>Group</title>
    <defs>
        <radialGradient cx="50%" cy="0%" fx="50%" fy="0%" r="100%" id="radialGradient-1">
            <stop stop-color="#64A2DA" offset="0%"></stop>
            <stop stop-color="#205195" offset="100%"></stop>
        </radialGradient>
    </defs>
    <g id="Page-1" stroke="none" stroke-width="1" fill="none" fill-rule="evenodd">
        <g id="Group" transform="translate(0.500000, 0.500000)">
            <circle id="Oval-9-Copy-7" fill="url(#radialGradient-1)" cx="25" cy="25" r="25"></circle>
            <polygon id="xyz-copy" fill="#FFFFFF" points="8.29722222 18.5666667 11.0972222 22.6666667 11.3222222 23.1166667 11.5472222 22.6666667 14.3472222 18.5666667 17.7972222 18.5666667 13.1472222 25.1416667 17.8722222 31.6666667 14.4222222 31.6666667 11.5472222 27.5916667 11.3222222 27.1666667 11.0972222 27.5916667 8.22222222 31.6666667 4.77222222 31.6666667 9.52222222 25.1416667 4.84722222 18.5666667"></polygon>
            <path d="M20.7083333,34.2166667 C21.0083348,34.3000004 21.2833321,34.3583332 21.5333333,34.3916667 C21.7833346,34.4250002 21.9999991,34.4416667 22.1833333,34.4416667 C22.4000011,34.4416667 22.5916658,34.404167 22.7583333,34.3291667 C22.9250008,34.2541663 23.0874992,34.1166677 23.2458333,33.9166667 C23.4041675,33.7166657 23.5624992,33.4375018 23.7208333,33.0791667 C23.8791675,32.7208315 24.0499991,32.2500029 24.2333333,31.6666667 L19.0333333,18.5666667 L22.4833333,18.5666667 L26.0583333,28.7666667 L29.2083333,18.5666667 L32.3583333,18.5666667 L26.8333333,34.2666667 C26.4833316,35.2666717 25.9250038,36.0374973 25.1583333,36.5791667 C24.3916628,37.120836 23.5000051,37.3916667 22.4833333,37.3916667 C21.8999971,37.3916667 21.3083363,37.3000009 20.7083333,37.1166667 L20.7083333,34.2166667 Z" id="Path" fill="#FFFFFF"></path>
            <polygon id="Path" fill="#FFFFFF" points="33.8138889 29.6166667 41.0888889 20.9166667 34.0888889 20.9166667 34.0888889 18.5666667 44.6138889 18.5666667 44.6138889 20.6166667 37.3638889 29.3166667 44.7388889 29.3166667 44.7388889 31.6666667 33.8138889 31.6666667"></polygon>
            <path d="M67.934,38 L67.934,29.024 L77.318,13.86 L74.734,13.86 L66.778,26.848 L58.856,13.86 L56.272,13.86 L65.588,28.956 L65.588,38 L67.934,38 Z M87.688,38.34 C88.9573333,38.34 90.1303333,38.0963333 91.207,37.609 C92.2836667,37.1216667 93.213,36.4586667 93.995,35.62 C94.777,34.7813333 95.389,33.8066667 95.831,32.696 C96.273,31.5853333 96.494,30.418 96.494,29.194 C96.494,27.9473333 96.273,26.7686667 95.831,25.658 C95.389,24.5473333 94.777,23.5726667 93.995,22.734 C93.213,21.8953333 92.2836667,21.2266667 91.207,20.728 C90.1303333,20.2293333 88.9573333,19.98 87.688,19.98 C86.4186667,19.98 85.2456667,20.2293333 84.169,20.728 C83.0923333,21.2266667 82.163,21.8953333 81.381,22.734 C80.599,23.5726667 79.987,24.5473333 79.545,25.658 C79.103,26.7686667 78.882,27.9473333 78.882,29.194 C78.882,30.418 79.0973333,31.5853333 79.528,32.696 C79.9586667,33.8066667 80.565,34.7813333 81.347,35.62 C82.129,36.4586667 83.0583333,37.1216667 84.135,37.609 C85.2116667,38.0963333 86.396,38.34 87.688,38.34 Z M87.654,36.3 C86.77,36.3 85.937,36.1186667 85.155,35.756 C84.373,35.3933333 83.693,34.889 83.115,34.243 C82.537,33.597 82.0836667,32.849 81.755,31.999 C81.4263333,31.149 81.262,30.2253333 81.262,29.228 C81.262,28.2306667 81.432,27.2956667 81.772,26.423 C82.112,25.5503333 82.571,24.7853333 83.149,24.128 C83.727,23.4706667 84.407,22.955 85.189,22.581 C85.971,22.207 86.804,22.02 87.688,22.02 C88.572,22.02 89.3993333,22.207 90.17,22.581 C90.9406667,22.955 91.6206667,23.465 92.21,24.111 C92.7993333,24.757 93.264,25.5163333 93.604,26.389 C93.944,27.2616667 94.114,28.1853333 94.114,29.16 C94.114,30.1573333 93.944,31.0866667 93.604,31.948 C93.264,32.8093333 92.7993333,33.563 92.21,34.209 C91.6206667,34.855 90.935,35.365 90.153,35.739 C89.371,36.113 88.538,36.3 87.654,36.3 Z M105.742,38.34 C107.306,38.34 108.745333,37.9603333 110.06,37.201 C111.374667,36.4416667 112.428667,35.3706667 113.222,33.988 L113.222,33.988 L113.222,36.436 C113.222,36.912 113.409,37.3086667 113.783,37.626 C114.157,37.9433333 114.604667,38.102 115.126,38.102 C115.307333,38.102 115.624667,38.068 116.078,38 L116.078,38 L116.078,35.96 C115.511333,35.96 115.228,35.6426667 115.228,35.008 L115.228,35.008 L115.228,20.286 L112.916,20.286 L112.916,31.438 C112.644,32.186 112.287,32.8546667 111.845,33.444 C111.403,34.0333333 110.904333,34.5433333 110.349,34.974 C109.793667,35.4046667 109.187333,35.7333333 108.53,35.96 C107.872667,36.1866667 107.204,36.3 106.524,36.3 C103.781333,36.3 102.41,34.294 102.41,30.282 L102.41,30.282 L102.41,20.286 L100.098,20.286 L100.098,30.69 C100.098,33.2286667 100.574,35.1383333 101.526,36.419 C102.478,37.6996667 103.883333,38.34 105.742,38.34 Z M122.776,38 L122.776,26.984 C123.252,25.556 124.068,24.434 125.224,23.618 C126.38,22.802 127.74,22.3713333 129.304,22.326 L129.304,22.326 L129.304,20.218 C129.190667,20.1953333 129.043333,20.184 128.862,20.184 L128.862,20.184 L128.284,20.184 C127.128,20.184 126.051333,20.5976667 125.054,21.425 C124.056667,22.2523333 123.252,23.2893333 122.64,24.536 L122.64,24.536 L122.64,20.286 L120.464,20.286 L120.464,38 L122.776,38 Z M151.166,38 L161.23,13.86 L158.714,13.86 L150.146,35.042 L141.51,13.86 L139.028,13.86 L149.092,38 L151.166,38 Z M171.77,38.34 C173.039333,38.34 174.212333,38.0963333 175.289,37.609 C176.365667,37.1216667 177.295,36.4586667 178.077,35.62 C178.859,34.7813333 179.471,33.8066667 179.913,32.696 C180.355,31.5853333 180.576,30.418 180.576,29.194 C180.576,27.9473333 180.355,26.7686667 179.913,25.658 C179.471,24.5473333 178.859,23.5726667 178.077,22.734 C177.295,21.8953333 176.365667,21.2266667 175.289,20.728 C174.212333,20.2293333 173.039333,19.98 171.77,19.98 C170.500667,19.98 169.327667,20.2293333 168.251,20.728 C167.174333,21.2266667 166.245,21.8953333 165.463,22.734 C164.681,23.5726667 164.069,24.5473333 163.627,25.658 C163.185,26.7686667 162.964,27.9473333 162.964,29.194 C162.964,30.418 163.179333,31.5853333 163.61,32.696 C164.040667,33.8066667 164.647,34.7813333 165.429,35.62 C166.211,36.4586667 167.140333,37.1216667 168.217,37.609 C169.293667,38.0963333 170.478,38.34 171.77,38.34 Z M171.736,36.3 C170.852,36.3 170.019,36.1186667 169.237,35.756 C168.455,35.3933333 167.775,34.889 167.197,34.243 C166.619,33.597 166.165667,32.849 165.837,31.999 C165.508333,31.149 165.344,30.2253333 165.344,29.228 C165.344,28.2306667 165.514,27.2956667 165.854,26.423 C166.194,25.5503333 166.653,24.7853333 167.231,24.128 C167.809,23.4706667 168.489,22.955 169.271,22.581 C170.053,22.207 170.886,22.02 171.77,22.02 C172.654,22.02 173.481333,22.207 174.252,22.581 C175.022667,22.955 175.702667,23.465 176.292,24.111 C176.881333,24.757 177.346,25.5163333 177.686,26.389 C178.026,27.2616667 178.196,28.1853333 178.196,29.16 C178.196,30.1573333 178.026,31.0866667 177.686,31.948 C177.346,32.8093333 176.881333,33.563 176.292,34.209 C175.702667,34.855 175.017,35.365 174.235,35.739 C173.453,36.113 172.62,36.3 171.736,36.3 Z M186.662,16.58 L186.662,13.18 L184.35,13.18 L184.35,16.58 L186.662,16.58 Z M186.662,38 L186.662,20.286 L184.35,20.286 L184.35,38 L186.662,38 Z M199.378,38.34 C200.216667,38.34 201.027,38.2323333 201.809,38.017 C202.591,37.8016667 203.305,37.4956667 203.951,37.099 C204.597,36.7023333 205.158,36.2376667 205.634,35.705 C206.11,35.1723333 206.472667,34.5886667 206.722,33.954 L206.722,33.954 L204.478,33.274 C204.342,33.682 204.104,34.0673333 203.764,34.43 C203.424,34.7926667 203.016,35.1156667 202.54,35.399 C202.064,35.6823333 201.548333,35.9033333 200.993,36.062 C200.437667,36.2206667 199.876667,36.3 199.31,36.3 C198.426,36.3 197.593,36.113 196.811,35.739 C196.029,35.365 195.343333,34.855 194.754,34.209 C194.164667,33.563 193.7,32.798 193.36,31.914 C193.02,31.03 192.85,30.0893333 192.85,29.092 C192.85,28.072 193.014333,27.1313333 193.343,26.27 C193.671667,25.4086667 194.125,24.6663333 194.703,24.043 C195.281,23.4196667 195.961,22.9266667 196.743,22.564 C197.525,22.2013333 198.369333,22.02 199.276,22.02 C200.364,22.02 201.35,22.275 202.234,22.785 C203.118,23.295 203.809333,24.0033333 204.308,24.91 L204.308,24.91 L206.552,24.196 C205.917333,22.904 204.976667,21.8783333 203.73,21.119 C202.483333,20.3596667 201.021333,19.98 199.344,19.98 C198.029333,19.98 196.828,20.218 195.74,20.694 C194.652,21.17 193.717,21.8216667 192.935,22.649 C192.153,23.4763333 191.546667,24.4453333 191.116,25.556 C190.685333,26.6666667 190.47,27.8453333 190.47,29.092 C190.47,30.3613333 190.691,31.5513333 191.133,32.662 C191.575,33.7726667 192.192667,34.753 192.986,35.603 C193.779333,36.453 194.72,37.1216667 195.808,37.609 C196.896,38.0963333 198.086,38.34 199.378,38.34 Z M218.078,38.34 C218.916667,38.34 219.732667,38.2323333 220.526,38.017 C221.319333,37.8016667 222.044667,37.4956667 222.702,37.099 C223.359333,36.7023333 223.937333,36.2376667 224.436,35.705 C224.934667,35.1723333 225.32,34.5773333 225.592,33.92 L225.592,33.92 L223.586,33.376 C223.382,33.852 223.093,34.2883333 222.719,34.685 C222.345,35.0816667 221.92,35.416 221.444,35.688 C220.968,35.96 220.446667,36.1753333 219.88,36.334 C219.313333,36.4926667 218.735333,36.572 218.146,36.572 C217.284667,36.572 216.474333,36.4076667 215.715,36.079 C214.955667,35.7503333 214.287,35.2913333 213.709,34.702 C213.131,34.1126667 212.655,33.4156667 212.281,32.611 C211.907,31.8063333 211.686,30.928 211.618,29.976 L211.618,29.976 L226.748,29.976 C226.770667,29.908 226.787667,29.7833333 226.799,29.602 C226.810333,29.4206667 226.816,29.2393333 226.816,29.058 C226.816,27.834 226.600667,26.678 226.17,25.59 C225.739333,24.502 225.138667,23.5386667 224.368,22.7 C223.597333,21.8613333 222.673667,21.1983333 221.597,20.711 C220.520333,20.2236667 219.336,19.98 218.044,19.98 C216.752,19.98 215.567667,20.2236667 214.491,20.711 C213.414333,21.1983333 212.479333,21.8556667 211.686,22.683 C210.892667,23.5103333 210.275,24.4736667 209.833,25.573 C209.391,26.6723333 209.17,27.8453333 209.17,29.092 C209.17,30.3613333 209.391,31.5513333 209.833,32.662 C210.275,33.7726667 210.892667,34.753 211.686,35.603 C212.479333,36.453 213.42,37.1216667 214.508,37.609 C215.596,38.0963333 216.786,38.34 218.078,38.34 Z M224.606,28.208 L211.55,28.208 C211.618,27.2786667 211.827667,26.4173333 212.179,25.624 C212.530333,24.8306667 212.995,24.1506667 213.573,23.584 C214.151,23.0173333 214.825333,22.5753333 215.596,22.258 C216.366667,21.9406667 217.182667,21.782 218.044,21.782 C218.905333,21.782 219.721333,21.9406667 220.492,22.258 C221.262667,22.5753333 221.937,23.0173333 222.515,23.584 C223.093,24.1506667 223.569,24.825 223.943,25.607 C224.317,26.389 224.538,27.256 224.606,28.208 L224.606,28.208 Z" id="YourVoice" fill="#518CC7" fill-rule="nonzero"></path>
        </g>
    </g>
</svg>